<mxfile host="app.diagrams.net" agent="Mozilla/5.0 (X11; Ubuntu; Linux x86_64; rv:136.0) Gecko/20100101 Firefox/136.0" version="26.1.3">
  <diagram name="Page-1" id="023gFlAZnsjRQemLT4a-">
    <mxGraphModel dx="2214" dy="758" grid="1" gridSize="10" guides="1" tooltips="1" connect="1" arrows="1" fold="1" page="1" pageScale="1" pageWidth="850" pageHeight="1100" math="0" shadow="0">
      <root>
        <mxCell id="0" />
        <mxCell id="1" parent="0" />
        <mxCell id="qGgKES_c7ijqDG2_mbs--11" value="" style="rounded=0;whiteSpace=wrap;html=1;fillColor=#d5e8d4;strokeColor=#82b366;" vertex="1" parent="1">
          <mxGeometry x="120" y="360" width="320" height="240" as="geometry" />
        </mxCell>
        <mxCell id="qGgKES_c7ijqDG2_mbs--13" value="" style="rounded=0;whiteSpace=wrap;html=1;fillColor=none;strokeColor=#9673a6;fillStyle=dots;strokeWidth=2;" vertex="1" parent="1">
          <mxGeometry x="80" y="440" width="240" height="150" as="geometry" />
        </mxCell>
        <mxCell id="qGgKES_c7ijqDG2_mbs--1" value="" style="endArrow=classic;html=1;rounded=0;" edge="1" parent="1">
          <mxGeometry width="50" height="50" relative="1" as="geometry">
            <mxPoint x="40" y="640" as="sourcePoint" />
            <mxPoint x="40" y="80" as="targetPoint" />
          </mxGeometry>
        </mxCell>
        <mxCell id="qGgKES_c7ijqDG2_mbs--2" value="" style="endArrow=classic;html=1;rounded=0;" edge="1" parent="1">
          <mxGeometry width="50" height="50" relative="1" as="geometry">
            <mxPoint x="40" y="640" as="sourcePoint" />
            <mxPoint x="760" y="640" as="targetPoint" />
          </mxGeometry>
        </mxCell>
        <mxCell id="qGgKES_c7ijqDG2_mbs--3" value="" style="rounded=0;whiteSpace=wrap;html=1;fillColor=#f8cecc;strokeColor=#b85450;" vertex="1" parent="1">
          <mxGeometry x="190" y="530" width="40" height="30" as="geometry" />
        </mxCell>
        <mxCell id="qGgKES_c7ijqDG2_mbs--4" value="" style="rounded=0;whiteSpace=wrap;html=1;fillColor=#f8cecc;strokeColor=#b85450;" vertex="1" parent="1">
          <mxGeometry x="240" y="530" width="40" height="30" as="geometry" />
        </mxCell>
        <mxCell id="qGgKES_c7ijqDG2_mbs--5" value="" style="rounded=0;whiteSpace=wrap;html=1;fillColor=#f8cecc;strokeColor=#b85450;" vertex="1" parent="1">
          <mxGeometry x="140" y="530" width="40" height="30" as="geometry" />
        </mxCell>
        <mxCell id="qGgKES_c7ijqDG2_mbs--6" value="" style="rounded=0;whiteSpace=wrap;html=1;fillColor=#f8cecc;strokeColor=#b85450;" vertex="1" parent="1">
          <mxGeometry x="240" y="490" width="40" height="30" as="geometry" />
        </mxCell>
        <mxCell id="qGgKES_c7ijqDG2_mbs--7" value="" style="rounded=0;whiteSpace=wrap;html=1;fillColor=#f8cecc;strokeColor=#b85450;" vertex="1" parent="1">
          <mxGeometry x="190" y="490" width="40" height="30" as="geometry" />
        </mxCell>
        <mxCell id="qGgKES_c7ijqDG2_mbs--8" value="" style="rounded=0;whiteSpace=wrap;html=1;fillColor=#f8cecc;strokeColor=#b85450;" vertex="1" parent="1">
          <mxGeometry x="360" y="450" width="40" height="30" as="geometry" />
        </mxCell>
        <mxCell id="qGgKES_c7ijqDG2_mbs--9" value="" style="rounded=0;whiteSpace=wrap;html=1;fillColor=#f8cecc;strokeColor=#b85450;" vertex="1" parent="1">
          <mxGeometry x="360" y="490" width="40" height="30" as="geometry" />
        </mxCell>
        <mxCell id="qGgKES_c7ijqDG2_mbs--10" value="" style="rounded=0;whiteSpace=wrap;html=1;fillColor=#f8cecc;strokeColor=#b85450;" vertex="1" parent="1">
          <mxGeometry x="360" y="530" width="40" height="30" as="geometry" />
        </mxCell>
        <mxCell id="qGgKES_c7ijqDG2_mbs--12" value="" style="endArrow=none;html=1;rounded=0;" edge="1" parent="1">
          <mxGeometry width="50" height="50" relative="1" as="geometry">
            <mxPoint x="320" y="600" as="sourcePoint" />
            <mxPoint x="320" y="360" as="targetPoint" />
          </mxGeometry>
        </mxCell>
        <mxCell id="qGgKES_c7ijqDG2_mbs--14" value="" style="rounded=0;whiteSpace=wrap;html=1;fillStyle=dashed;fillColor=none;strokeColor=#9673a6;strokeWidth=2;perimeterSpacing=1;" vertex="1" parent="1">
          <mxGeometry x="320" y="440" width="240" height="150" as="geometry" />
        </mxCell>
        <mxCell id="qGgKES_c7ijqDG2_mbs--16" value="" style="endArrow=classic;startArrow=classic;html=1;rounded=0;exitX=0;exitY=0.25;exitDx=0;exitDy=0;" edge="1" parent="1" source="qGgKES_c7ijqDG2_mbs--11">
          <mxGeometry width="50" height="50" relative="1" as="geometry">
            <mxPoint x="400" y="420" as="sourcePoint" />
            <mxPoint x="320" y="420" as="targetPoint" />
          </mxGeometry>
        </mxCell>
        <mxCell id="qGgKES_c7ijqDG2_mbs--17" value="" style="endArrow=classic;startArrow=classic;html=1;rounded=0;exitX=0;exitY=0.25;exitDx=0;exitDy=0;" edge="1" parent="1">
          <mxGeometry width="50" height="50" relative="1" as="geometry">
            <mxPoint x="320" y="420" as="sourcePoint" />
            <mxPoint x="440" y="420" as="targetPoint" />
          </mxGeometry>
        </mxCell>
        <mxCell id="qGgKES_c7ijqDG2_mbs--18" value="70%" style="text;html=1;align=center;verticalAlign=middle;whiteSpace=wrap;rounded=0;" vertex="1" parent="1">
          <mxGeometry x="190" y="390" width="60" height="30" as="geometry" />
        </mxCell>
        <mxCell id="qGgKES_c7ijqDG2_mbs--19" value="30%" style="text;html=1;align=center;verticalAlign=middle;whiteSpace=wrap;rounded=0;" vertex="1" parent="1">
          <mxGeometry x="350" y="390" width="60" height="30" as="geometry" />
        </mxCell>
        <mxCell id="qGgKES_c7ijqDG2_mbs--20" value="Rolling minute" style="text;html=1;align=center;verticalAlign=middle;whiteSpace=wrap;rounded=0;" vertex="1" parent="1">
          <mxGeometry x="250" y="330" width="80" height="30" as="geometry" />
        </mxCell>
        <mxCell id="qGgKES_c7ijqDG2_mbs--21" value="" style="endArrow=classic;html=1;rounded=0;entryX=1;entryY=0;entryDx=0;entryDy=0;" edge="1" parent="1" target="qGgKES_c7ijqDG2_mbs--11">
          <mxGeometry width="50" height="50" relative="1" as="geometry">
            <mxPoint x="460" y="310" as="sourcePoint" />
            <mxPoint x="450" y="370" as="targetPoint" />
          </mxGeometry>
        </mxCell>
        <mxCell id="qGgKES_c7ijqDG2_mbs--22" value="Current time" style="text;html=1;align=center;verticalAlign=middle;whiteSpace=wrap;rounded=0;" vertex="1" parent="1">
          <mxGeometry x="425" y="280" width="80" height="30" as="geometry" />
        </mxCell>
        <mxCell id="qGgKES_c7ijqDG2_mbs--23" value="Number of requests" style="text;html=1;align=center;verticalAlign=middle;whiteSpace=wrap;rounded=0;" vertex="1" parent="1">
          <mxGeometry x="-50" y="350" width="80" height="30" as="geometry" />
        </mxCell>
        <mxCell id="qGgKES_c7ijqDG2_mbs--24" value="Rate limit: 5 requests/min" style="text;html=1;align=center;verticalAlign=middle;whiteSpace=wrap;rounded=0;" vertex="1" parent="1">
          <mxGeometry x="600" y="200" width="80" height="30" as="geometry" />
        </mxCell>
        <mxCell id="qGgKES_c7ijqDG2_mbs--25" value="" style="endArrow=classic;startArrow=classic;html=1;rounded=0;exitX=0;exitY=0.25;exitDx=0;exitDy=0;" edge="1" parent="1">
          <mxGeometry width="50" height="50" relative="1" as="geometry">
            <mxPoint x="80" y="620" as="sourcePoint" />
            <mxPoint x="320" y="620" as="targetPoint" />
          </mxGeometry>
        </mxCell>
        <mxCell id="qGgKES_c7ijqDG2_mbs--26" value="previous minute" style="text;html=1;align=center;verticalAlign=middle;whiteSpace=wrap;rounded=0;" vertex="1" parent="1">
          <mxGeometry x="150" y="600" width="100" height="30" as="geometry" />
        </mxCell>
        <mxCell id="qGgKES_c7ijqDG2_mbs--28" value="" style="endArrow=classic;startArrow=classic;html=1;rounded=0;exitX=0;exitY=0.25;exitDx=0;exitDy=0;" edge="1" parent="1">
          <mxGeometry width="50" height="50" relative="1" as="geometry">
            <mxPoint x="320" y="620" as="sourcePoint" />
            <mxPoint x="560" y="620" as="targetPoint" />
          </mxGeometry>
        </mxCell>
        <mxCell id="qGgKES_c7ijqDG2_mbs--29" value="current minute" style="text;html=1;align=center;verticalAlign=middle;whiteSpace=wrap;rounded=0;" vertex="1" parent="1">
          <mxGeometry x="400" y="600" width="100" height="30" as="geometry" />
        </mxCell>
      </root>
    </mxGraphModel>
  </diagram>
</mxfile>
